<svg data-v-423bf9ae="" xmlns="http://www.w3.org/2000/svg" viewBox="0 0 503 90" class="iconLeft"><!----><!----><!----><g data-v-423bf9ae="" id="7dc8af39-4a54-4989-9ead-0489a2dc0a4f" fill="black" transform="matrix(5.830903811703725,0,0,5.830903811703725,110.92317038097275,2.3469397142517323)"><path d="M0.84 12.29L0.84 2.69L6.48 2.69L6.48 4.28L2.63 4.28L2.63 6.71L5.92 6.71L5.92 8.30L2.63 8.30L2.63 12.29L0.84 12.29ZM10.53 12.46L10.53 12.46Q9.04 12.46 8.32 11.52L8.32 11.52L8.32 11.52Q7.59 10.58 7.59 8.61L7.59 8.61L7.59 8.61Q7.59 6.64 8.32 5.70L8.32 5.70L8.32 5.70Q9.04 4.76 10.53 4.76L10.53 4.76L10.53 4.76Q12.01 4.76 12.74 5.70L12.74 5.70L12.74 5.70Q13.47 6.64 13.47 8.61L13.47 8.61L13.47 8.61Q13.47 10.58 12.74 11.52L12.74 11.52L12.74 11.52Q12.01 12.46 10.53 12.46L10.53 12.46ZM10.53 11.05L10.53 11.05Q11.16 11.05 11.44 10.51L11.44 10.51L11.44 10.51Q11.72 9.97 11.72 8.88L11.72 8.88L11.72 8.34L11.72 8.34Q11.72 7.25 11.44 6.71L11.44 6.71L11.44 6.71Q11.16 6.17 10.53 6.17L10.53 6.17L10.53 6.17Q9.90 6.17 9.62 6.71L9.62 6.71L9.62 6.71Q9.34 7.25 9.34 8.34L9.34 8.34L9.34 8.88L9.34 8.88Q9.34 9.97 9.62 10.51L9.62 10.51L9.62 10.51Q9.90 11.05 10.53 11.05L10.53 11.05ZM17.54 12.46L17.54 12.46Q16.06 12.46 15.33 11.52L15.33 11.52L15.33 11.52Q14.60 10.58 14.60 8.61L14.60 8.61L14.60 8.61Q14.60 6.64 15.33 5.70L15.33 5.70L15.33 5.70Q16.06 4.76 17.54 4.76L17.54 4.76L17.54 4.76Q19.03 4.76 19.75 5.70L19.75 5.70L19.75 5.70Q20.48 6.64 20.48 8.61L20.48 8.61L20.48 8.61Q20.48 10.58 19.75 11.52L19.75 11.52L19.75 11.52Q19.03 12.46 17.54 12.46L17.54 12.46ZM17.54 11.05L17.54 11.05Q18.17 11.05 18.45 10.51L18.45 10.51L18.45 10.51Q18.73 9.97 18.73 8.88L18.73 8.88L18.73 8.34L18.73 8.34Q18.73 7.25 18.45 6.71L18.45 6.71L18.45 6.71Q18.17 6.17 17.54 6.17L17.54 6.17L17.54 6.17Q16.91 6.17 16.63 6.71L16.63 6.71L16.63 6.71Q16.35 7.25 16.35 8.34L16.35 8.34L16.35 8.88L16.35 8.88Q16.35 9.97 16.63 10.51L16.63 10.51L16.63 10.51Q16.91 11.05 17.54 11.05L17.54 11.05ZM23.98 12.46L23.98 12.46Q22.86 12.46 22.24 11.50L22.24 11.50L22.24 11.50Q21.62 10.54 21.62 8.60L21.62 8.60L21.62 8.60Q21.62 6.68 22.24 5.72L22.24 5.72L22.24 5.72Q22.86 4.76 23.90 4.76L23.90 4.76L23.90 4.76Q24.46 4.76 24.90 5.00L24.90 5.00L24.90 5.00Q25.34 5.25 25.54 5.68L25.54 5.68L25.61 5.68L25.61 2.17L27.29 2.17L27.29 12.29L25.89 12.29L25.72 11.38L25.65 11.38L25.65 11.38Q25.38 11.91 24.95 12.19L24.95 12.19L24.95 12.19Q24.51 12.46 23.98 12.46L23.98 12.46ZM24.49 10.93L24.49 10.93Q25.07 10.93 25.34 10.42L25.34 10.42L25.34 10.42Q25.61 9.91 25.61 8.88L25.61 8.88L25.61 8.37L25.61 8.37Q25.61 7.34 25.34 6.81L25.34 6.81L25.34 6.81Q25.07 6.29 24.49 6.29L24.49 6.29L24.49 6.29Q23.90 6.29 23.63 6.80L23.63 6.80L23.63 6.80Q23.37 7.31 23.37 8.34L23.37 8.34L23.37 8.88L23.37 8.88Q23.37 9.91 23.63 10.42L23.63 10.42L23.63 10.42Q23.90 10.93 24.49 10.93L24.49 10.93ZM32.09 12.29L32.09 2.69L35.52 2.69L35.52 2.69Q36.96 2.69 37.74 3.49L37.74 3.49L37.74 3.49Q38.53 4.28 38.53 5.57L38.53 5.57L38.53 5.57Q38.53 6.47 38.15 7.15L38.15 7.15L38.15 7.15Q37.77 7.83 37.09 8.20L37.09 8.20L37.09 8.20Q36.41 8.57 35.52 8.57L35.52 8.57L33.88 8.57L33.88 12.29L32.09 12.29ZM33.88 6.99L35.34 6.99L35.34 6.99Q35.98 6.99 36.33 6.61L36.33 6.61L36.33 6.61Q36.68 6.24 36.68 5.57L36.68 5.57L36.68 5.57Q36.68 4.98 36.32 4.63L36.32 4.63L36.32 4.63Q35.97 4.28 35.34 4.28L35.34 4.28L33.88 4.28L33.88 6.99ZM40.95 12.46L40.95 12.46Q40.26 12.46 39.68 11.99L39.68 11.99L39.68 11.99Q39.10 11.52 39.10 10.39L39.10 10.39L39.10 10.39Q39.10 8.99 40.05 8.40L40.05 8.40L40.05 8.40Q41.01 7.81 42.76 7.81L42.76 7.81L42.76 7.04L42.76 7.04Q42.76 6.61 42.59 6.37L42.59 6.37L42.59 6.37Q42.43 6.13 41.99 6.13L41.99 6.13L41.99 6.13Q41.52 6.13 41.31 6.36L41.31 6.36L41.31 6.36Q41.10 6.59 41.10 6.90L41.10 6.90L41.10 7.11L39.47 7.11L39.47 7.11Q39.45 7.03 39.45 6.80L39.45 6.80L39.45 6.80Q39.45 5.88 40.13 5.32L40.13 5.32L40.13 5.32Q40.81 4.76 41.94 4.76L41.94 4.76L41.94 4.76Q43.20 4.76 43.83 5.32L43.83 5.32L43.83 5.32Q44.45 5.88 44.45 6.93L44.45 6.93L44.45 10.56L44.45 10.56Q44.45 10.81 44.56 10.93L44.56 10.93L44.56 10.93Q44.67 11.05 44.84 11.05L44.84 11.05L45.18 11.05L45.18 12.24L45.18 12.24Q44.76 12.46 44.18 12.46L44.18 12.46L44.18 12.46Q43.69 12.46 43.35 12.20L43.35 12.20L43.35 12.20Q43.01 11.94 42.88 11.49L42.88 11.49L42.81 11.49L42.81 11.49Q42.46 11.98 42.05 12.22L42.05 12.22L42.05 12.22Q41.64 12.46 40.95 12.46L40.95 12.46ZM41.65 11.06L41.65 11.06Q42.21 11.06 42.48 10.61L42.48 10.61L42.48 10.61Q42.76 10.16 42.76 9.45L42.76 9.45L42.76 9.03L42.76 9.03Q41.90 9.03 41.36 9.30L41.36 9.30L41.36 9.30Q40.82 9.58 40.82 10.23L40.82 10.23L40.82 10.23Q40.82 10.63 41.03 10.84L41.03 10.84L41.03 10.84Q41.23 11.06 41.65 11.06L41.65 11.06ZM46.05 12.29L46.05 2.17L47.73 2.17L47.73 12.29L46.05 12.29ZM50.53 12.46L50.53 12.46Q49.84 12.46 49.26 11.99L49.26 11.99L49.26 11.99Q48.68 11.52 48.68 10.39L48.68 10.39L48.68 10.39Q48.68 8.99 49.63 8.40L49.63 8.40L49.63 8.40Q50.58 7.81 52.33 7.81L52.33 7.81L52.33 7.04L52.33 7.04Q52.33 6.61 52.17 6.37L52.17 6.37L52.17 6.37Q52.01 6.13 51.56 6.13L51.56 6.13L51.56 6.13Q51.10 6.13 50.89 6.36L50.89 6.36L50.89 6.36Q50.68 6.59 50.68 6.90L50.68 6.90L50.68 7.11L49.04 7.11L49.04 7.11Q49.03 7.03 49.03 6.80L49.03 6.80L49.03 6.80Q49.03 5.88 49.71 5.32L49.71 5.32L49.71 5.32Q50.39 4.76 51.52 4.76L51.52 4.76L51.52 4.76Q52.78 4.76 53.40 5.32L53.40 5.32L53.40 5.32Q54.03 5.88 54.03 6.93L54.03 6.93L54.03 10.56L54.03 10.56Q54.03 10.81 54.14 10.93L54.14 10.93L54.14 10.93Q54.25 11.05 54.42 11.05L54.42 11.05L54.75 11.05L54.75 12.24L54.75 12.24Q54.33 12.46 53.76 12.46L53.76 12.46L53.76 12.46Q53.27 12.46 52.93 12.20L52.93 12.20L52.93 12.20Q52.58 11.94 52.46 11.49L52.46 11.49L52.39 11.49L52.39 11.49Q52.04 11.98 51.63 12.22L51.63 12.22L51.63 12.22Q51.21 12.46 50.53 12.46L50.53 12.46ZM51.23 11.06L51.23 11.06Q51.79 11.06 52.06 10.61L52.06 10.61L52.06 10.61Q52.33 10.16 52.33 9.45L52.33 9.45L52.33 9.03L52.33 9.03Q51.48 9.03 50.94 9.30L50.94 9.30L50.94 9.30Q50.40 9.58 50.40 10.23L50.40 10.23L50.40 10.23Q50.40 10.63 50.60 10.84L50.60 10.84L50.60 10.84Q50.81 11.06 51.23 11.06L51.23 11.06ZM58.23 12.46L58.23 12.46Q56.78 12.46 56.11 11.53L56.11 11.53L56.11 11.53Q55.44 10.60 55.44 8.61L55.44 8.61L55.44 8.61Q55.44 6.64 56.12 5.70L56.12 5.70L56.12 5.70Q56.80 4.76 58.17 4.76L58.17 4.76L58.17 4.76Q59.39 4.76 60.07 5.48L60.07 5.48L60.07 5.48Q60.75 6.20 60.75 7.70L60.75 7.70L59.02 7.70L59.02 7.70Q59.02 6.17 58.17 6.17L58.17 6.17L58.17 6.17Q57.65 6.17 57.42 6.71L57.42 6.71L57.42 6.71Q57.19 7.25 57.19 8.34L57.19 8.34L57.19 8.88L57.19 8.88Q57.19 9.97 57.44 10.51L57.44 10.51L57.44 10.51Q57.68 11.05 58.23 11.05L58.23 11.05L58.23 11.05Q58.67 11.05 58.88 10.67L58.88 10.67L58.88 10.67Q59.08 10.29 59.08 9.52L59.08 9.52L60.75 9.52L60.75 9.52Q60.75 11.02 60.09 11.74L60.09 11.74L60.09 11.74Q59.43 12.46 58.23 12.46L58.23 12.46ZM64.57 12.46L64.57 12.46Q63.13 12.46 62.41 11.52L62.41 11.52L62.41 11.52Q61.68 10.57 61.68 8.61L61.68 8.61L61.68 8.61Q61.68 4.76 64.51 4.76L64.51 4.76L64.51 4.76Q65.86 4.76 66.51 5.70L66.51 5.70L66.51 5.70Q67.17 6.64 67.17 8.61L67.17 8.61L67.17 9.03L63.43 9.03L63.43 9.03Q63.45 10.07 63.71 10.58L63.71 10.58L63.71 10.58Q63.97 11.09 64.57 11.09L64.57 11.09L64.57 11.09Q65.00 11.09 65.25 10.72L65.25 10.72L65.25 10.72Q65.51 10.35 65.51 9.69L65.51 9.69L67.17 9.69L67.17 9.69Q67.17 11.06 66.46 11.76L66.46 11.76L66.46 11.76Q65.74 12.46 64.57 12.46L64.57 12.46ZM63.45 7.81L65.41 7.81L65.41 7.81Q65.41 6.13 64.51 6.13L64.51 6.13L64.51 6.13Q63.99 6.13 63.74 6.56L63.74 6.56L63.74 6.56Q63.49 6.99 63.45 7.81L63.45 7.81Z"></path></g><!----><g data-v-423bf9ae="" id="107e1b6a-6bd5-46a5-802b-e4e56dab6663" transform="matrix(2.994410458179972,0,0,2.994410458179972,0.08943266912044834,-1.9385669710569857)" stroke="none" fill="black"><path d="M17.572 23.933l4.106 7.095L32 13.189h-8.981V7.582L11.51.972 0 7.582v13.222l11.51 6.611 6.062-3.482zm10.96-8.744l-6.855 11.846-6.855-11.846h13.71z"></path></g><!----></svg>